<!DOCTYPE svg PUBLIC "-//W3C//DTD SVG 1.1//EN" "http://www.w3.org/Graphics/SVG/1.1/DTD/svg11.dtd">
<!-- Uploaded to: SVG Repo, www.svgrepo.com, Transformed by: SVG Repo Mixer Tools -->
<svg height="64px" width="64px" version="1.1" id="Layer_1" xmlns="http://www.w3.org/2000/svg" xmlns:xlink="http://www.w3.org/1999/xlink" viewBox="0 0 512.001 512.001" xml:space="preserve" fill="currentcolor">

<g id="SVGRepo_bgCarrier" stroke-width="0"/>

<g id="SVGRepo_tracerCarrier" stroke-linecap="round" stroke-linejoin="round"/>

<g id="SVGRepo_iconCarrier"> 
<path d="M379.412,318.727c-47.663-9.064-49.78-21.549-87.041-25.745 c-51.335-5.781-64.677,15.966-123.819,23.292c-15.415,1.909-46.37,5.678-78.067,2.026c4.894,87.285,77.009,156.611,165.515,156.611 c86.106,0,156.88-65.572,165.161-149.504C406.751,323.822,392.404,321.199,379.412,318.727z"/> 
<path d="M120.592,319.826c-9.622,0.06-19.824-0.34-30.108-1.525c4.423,78.875,63.738,143.079,140.436,154.72 C173.439,442.496,131.652,386.366,120.592,319.826z"/> 
<path d="M379.412,318.727c-0.679-0.129-1.318-0.262-1.979-0.392 c-8.094,70.291-53.489,129.217-115.895,156.476c83.585-2.742,151.521-67.277,159.623-149.401 C406.751,323.822,392.404,321.197,379.412,318.727z"/> 
<g> 
<circle cx="279.494" cy="229.055" r="20.432"/> 
<circle cx="329.557" cy="269.483" r="15.528"/> 
<circle cx="326.554" cy="189.052" r="15.574"/> 
</g> <g> 
<path d="M439.569,371.615c-4.819-1.912-10.274,0.443-12.183,5.26 c-13.467,33.934-36.522,62.893-66.671,83.744c-30.846,21.335-67.056,32.611-104.713,32.611 c-101.631,0-184.312-82.682-184.312-184.312c0-79.58,50.801-149.862,126.409-174.889c3.841-1.271,6.436-4.862,6.436-8.909V58.407 H307.47v66.714c0,4.047,2.594,7.638,6.436,8.909c55.975,18.529,100.022,63.076,117.823,119.163c1.568,4.94,6.844,7.67,11.783,6.106 c4.94-1.569,7.674-6.844,6.106-11.784c-18.929-59.64-64.779-107.434-123.379-129.052V57.979 c15.637-0.409,28.232-13.247,28.232-28.98C354.471,13.009,341.463,0,325.472,0H186.532c-15.99,0-28.999,13.009-28.999,28.999 c0,15.733,12.596,28.571,28.232,28.98v60.482C106.025,147.82,52.919,223.512,52.919,308.92 c0,111.979,91.103,203.081,203.081,203.081c41.488,0,81.389-12.43,115.388-35.945c33.207-22.966,58.601-54.869,73.439-92.256 C446.741,378.982,444.385,373.526,439.569,371.615z M176.302,28.999c0-5.641,4.59-10.23,10.23-10.23h138.939 c5.641,0,10.23,4.59,10.23,10.23s-4.59,10.23-10.23,10.23H186.532C180.892,39.231,176.302,34.641,176.302,28.999z"/> 
<path d="M458.408,292.253c-0.42-5.165-4.949-9.007-10.114-8.594c-5.166,0.42-9.013,4.949-8.594,10.114 c0.407,5.004,0.613,10.099,0.613,15.145c0,5.184,4.2,9.384,9.384,9.384s9.384-4.2,9.384-9.384 C459.082,303.367,458.855,297.76,458.408,292.253z"/> 
</g> <g> 
</g> </g>
</svg>