<?xml version="1.0" encoding="utf-8"?>
<svg fill="currentcolor" width="64px" height="64px" viewBox="0 0 12 10.286" role="img" focusable="false" aria-hidden="true" xmlns="http://www.w3.org/2000/svg">
  <path d="M6,0 0.857,1.714 0.857,2.571 11.143,2.571 11.143,1.714 Z M0.857,3.429 0.857,4.286 1.714,4.286 1.714,8.571 0.857,8.571 0,10.286 12,10.286 11.143,8.571 10.286,8.571 10.286,4.286 11.143,4.286 11.143,3.429 Z M4.286,4.286 C4.712,4.286 5.143,4.743 5.143,5.143 L5.143,8.571 3.429,8.571 3.429,5.143 C3.429,4.691 3.86,4.286 4.286,4.286 Z M7.714,4.286 C8.145,4.286 8.571,4.691 8.571,5.143 L8.571,8.571 6.857,8.571 6.857,5.143 C6.857,4.691 7.283,4.286 7.714,4.286 Z"/>
</svg>